<svg xmlns="http://www.w3.org/2000/svg" xmlns:xlink="http://www.w3.org/1999/xlink" width="500" zoomAndPan="magnify" viewBox="0 0 375 374.999991" height="500" preserveAspectRatio="xMidYMid meet" version="1.0"><defs><g/></defs><g fill="#160060" fill-opacity="1"><g transform="translate(61.538343, 274.796851)"><g><path d="M 132.421875 -3.152344 C 120.292969 -30.074219 107.199219 -56.75 95.070312 -84.15625 C 114.472656 -91.191406 130.722656 -106.710938 130.722656 -136.300781 C 130.722656 -193.539062 76.152344 -194.023438 65.238281 -194.023438 L 2.425781 -194.023438 C 1.210938 -194.023438 0 -192.808594 0 -191.839844 L 0 -158.855469 L 65.238281 -158.855469 C 71.0625 -158.855469 93.859375 -157.644531 93.859375 -136.300781 C 93.859375 -114.957031 73.242188 -113.988281 65.238281 -113.988281 L 0 -113.988281 L 0 -2.183594 C 0 -1.210938 1.210938 0 2.425781 0 L 34.195312 0 C 35.652344 0 36.863281 -1.210938 36.863281 -2.183594 L 36.863281 -78.335938 L 57.722656 -78.335938 L 93.132812 -1.457031 C 93.375 -0.726562 94.828125 0 95.554688 0 L 130.238281 0 C 132.179688 0 133.148438 -1.457031 132.421875 -3.152344 Z M 132.421875 -3.152344 "/></g></g></g><g fill="#160060" fill-opacity="1"><g transform="translate(190.348557, 219.679059)"><g><path d="M 109.015625 -8.046875 L 109.015625 -65.484375 L 82.492188 -65.484375 L 82.492188 -26.15625 C 80.117188 -25.789062 77.554688 -25.425781 75.175781 -25.425781 C 24.691406 -25.425781 22.316406 -103.527344 75.175781 -105.359375 C 89.078125 -105.722656 97.492188 -102.796875 102.613281 -100.601562 L 105.722656 -127.125 C 103.347656 -127.855469 90.726562 -132.429688 75.175781 -131.878906 C -15.546875 -128.589844 -11.15625 0.730469 75.175781 0.730469 C 87.617188 0.730469 98.957031 -2.378906 109.015625 -8.046875 Z M 109.015625 -8.046875 "/></g></g></g></svg>